<?xml version="1.0" standalone="no"?>
<!DOCTYPE svg PUBLIC "-//W3C//DTD SVG 20010904//EN"
 "http://www.w3.org/TR/2001/REC-SVG-20010904/DTD/svg10.dtd">
<svg version="1.0" xmlns="http://www.w3.org/2000/svg"
 width="452.000000pt" height="161.000000pt" viewBox="0 0 452.000000 161.000000"
 preserveAspectRatio="xMidYMid meet">

<g transform="translate(0.000000,161.000000) scale(0.100000,-0.100000)"
fill="#000000" stroke="none">
<path d="M0 805 l0 -805 2260 0 2260 0 0 805 0 805 -2260 0 -2260 0 0 -805z
m2768 299 c41 -29 23 -84 -28 -84 -32 0 -50 17 -50 46 0 20 32 54 50 54 3 0
16 -7 28 -16z m-1825 -29 c41 -19 81 -71 92 -117 7 -28 7 -28 -43 -28 -45 0
-50 3 -56 25 -13 49 -101 71 -157 38 -39 -23 -59 -70 -59 -138 0 -63 17 -103
56 -134 49 -38 133 -22 156 31 12 25 18 28 60 28 27 0 48 -5 48 -10 0 -27 -30
-78 -63 -107 -103 -90 -264 -57 -325 67 -38 78 -38 184 1 255 28 51 73 89 123
105 42 14 123 6 167 -15z m1601 1 c46 -19 66 -52 66 -106 0 -38 -5 -52 -31
-78 -21 -22 -26 -32 -16 -32 8 0 27 -14 41 -31 34 -40 36 -113 4 -154 -35 -44
-74 -55 -208 -55 l-120 0 0 235 0 235 115 0 c76 0 127 -5 149 -14z m876 -221
l0 -235 -45 0 c-34 0 -45 4 -45 16 0 13 -5 12 -34 -5 -41 -26 -69 -26 -124 -1
-56 25 -81 79 -82 170 0 77 21 124 70 158 43 29 108 30 144 1 l26 -20 0 75 0
76 45 0 45 0 0 -235z m-2063 99 c57 -43 68 -69 68 -158 0 -75 -3 -86 -27 -118
-70 -92 -225 -85 -282 12 -10 18 -21 59 -23 94 -6 77 23 139 83 174 49 29 139
27 181 -4z m230 6 c5 -20 5 -20 30 0 35 28 101 26 143 -2 49 -34 70 -81 70
-158 -1 -91 -26 -145 -82 -170 -55 -25 -83 -25 -124 1 l-34 21 0 -82 0 -81
-47 3 -48 3 -3 230 c-1 126 0 235 2 242 3 8 22 13 47 13 32 0 42 -4 46 -20z
m539 4 c51 -24 77 -68 82 -136 l4 -58 -121 0 c-122 0 -122 0 -116 -22 17 -57
95 -78 136 -37 17 17 29 20 56 16 46 -8 47 -10 28 -47 -35 -68 -160 -89 -240
-40 -72 44 -97 165 -52 251 42 79 141 112 223 73z m662 -167 l2 -178 -47 3
-48 3 -3 165 c-1 90 0 170 3 178 3 9 19 12 47 10 l43 -3 3 -178z m159 163 c5
-20 5 -20 30 0 14 11 41 20 59 20 33 0 34 -1 34 -40 0 -39 -1 -40 -35 -40 -25
0 -44 -8 -60 -25 -24 -23 -25 -30 -25 -140 l0 -115 -45 0 -45 0 0 180 0 180
41 0 c32 0 42 -4 46 -20z m780 0 c37 -22 68 -64 58 -80 -11 -18 -74 -11 -95
10 -22 22 -51 26 -81 10 -42 -23 -17 -52 56 -65 104 -19 150 -73 124 -143 -29
-76 -156 -105 -242 -55 -40 24 -66 71 -46 84 25 16 74 10 86 -10 26 -42 117
-33 111 11 -2 18 -15 26 -67 39 -80 21 -106 35 -120 66 -26 57 -4 114 53 139
47 20 125 17 163 -6z"/>
<path d="M2370 955 l0 -55 58 0 c64 0 92 18 92 57 0 35 -31 53 -93 53 l-57 0
0 -55z"/>
<path d="M2370 766 l0 -66 63 0 c67 0 91 11 101 47 5 14 0 29 -16 47 -19 21
-35 27 -85 33 l-63 6 0 -67z"/>
<path d="M3207 882 c-36 -39 -33 -136 4 -173 26 -26 65 -24 94 6 33 33 36 119
4 159 -25 32 -77 36 -102 8z"/>
<path d="M1228 894 c-51 -27 -60 -123 -17 -179 38 -47 109 -24 125 40 24 94
-40 176 -108 139z"/>
<path d="M1611 874 c-32 -40 -29 -126 4 -159 41 -42 95 -29 114 26 16 47 13
90 -9 127 -26 43 -78 46 -109 6z"/>
<path d="M2012 894 c-12 -8 -27 -24 -32 -35 -10 -18 -7 -19 65 -19 84 0 96 12
49 49 -32 25 -52 26 -82 5z"/>
</g>
</svg>
